<svg xmlns="http://www.w3.org/2000/svg" viewBox="0 0 371.98 392.53"><defs><style>.cls-1{fill:#006bc0;}.cls-2{fill:#0096dc;}.cls-3{fill:#fff;}</style></defs><g id="Capa_2" data-name="Capa 2"><g id="Capa_1-2" data-name="Capa 1"><path class="cls-1" d="M372,0,342.76,338.92a256,256,0,0,1-313.53,0L0,0Z"/><polygon class="cls-2" points="185.99 31.86 185.99 385.82 308.26 351.3 335.54 31.86 185.99 31.86"/><polygon class="cls-3" points="294.03 170.31 205.84 170.31 297.99 123.42 301.97 76.27 70 76.27 74.06 124.34 167.18 124.34 77.84 169.01 81.99 218.25 81.99 218.25 241.37 218.25 236.14 276.89 185.99 290.48 133.74 275.85 132.44 239.28 83.77 239.28 89.86 311.37 185.99 338.54 282.12 311.37 294.03 170.31 294.03 170.31"/></g></g></svg>