<?xml version="1.0" encoding="utf-8"?>
<!-- Generator: Adobe Illustrator 25.0.0, SVG Export Plug-In . SVG Version: 6.00 Build 0)  -->
<svg version="1.1" id="Capa_1" xmlns:svgjs="http://svgjs.com/svgjs"
	 xmlns="http://www.w3.org/2000/svg" xmlns:xlink="http://www.w3.org/1999/xlink" x="0px" y="0px" viewBox="0 0 512 512"
	 style="enable-background:new 0 0 512 512;" xml:space="preserve">
<style type="text/css">
	.st0{fill:#EDEDED;}
	.st1{fill:#55CD6C;}
	.st2{fill:#FEFEFE;}
</style>
<g transform="matrix(0.12000000000000001,0,0,0.11999999999999998,225.2800000000001,230.28000000000003)">
	<path class="st0" d="M-1877.3,2347.7l294.2-1066.7c-191.3-331-294.2-698.8-294.2-1081.4c0-1162.3,956.3-2118.6,2126-2118.6
		S2389.3-962.7,2389.3,199.6s-971,2148.1-2140.7,2148.1c-367.8,0-720.9-117.7-1037.2-294.2L-1877.3,2347.7z"/>
	<path class="st1" d="M-729.7,1670.9l66.2,36.8C-391.4,1876.9-75,1979.8,256,1979.8c963.7,0,1765.5-801.8,1765.5-1780.2
		S1219.7-1551.2,248.6-1551.2S-1509.5-771.4-1509.5,199.6c0,338.4,95.6,669.4,272.2,949l44.1,66.2l-169.2,617.9L-729.7,1670.9z"/>
	<path class="st2" d="M-317.8-786.1l-139.8-7.4c-44.1,0-88.3,14.7-117.7,44.1c-66.2,58.8-176.6,169.2-206,316.3
		c-51.5,220.7,29.4,485.5,220.7,750.3s559.1,691.5,1206.4,875.4c206,58.9,367.8,22.1,500.2-58.9c103-66.2,169.2-169.2,191.3-279.5
		l22.1-103c7.4-29.4-7.4-66.2-36.8-80.9L859.2,457.1c-29.4-14.7-66.2-7.4-88.3,22.1L587,714.6c-14.7,14.7-36.8,22.1-58.9,14.7
		C403.1,685.1-16.2,508.6-244.2,67.2c-7.4-22.1-7.4-44.1,7.4-58.8l176.6-198.6c14.7-22.1,22.1-51.5,14.7-73.6L-258.9-742
		C-266.3-764.1-288.4-786.1-317.8-786.1"/>
</g>
</svg>
